<svg height="512pt" viewBox="0 -16 512 511" width="512pt" xmlns="http://www.w3.org/2000/svg"><path d="m390.800781 129.382812c-11.0625 2.082032-30.816406 7.945313-54.078125 24.480469l63.566406 46.523438v-63.113281c0-5.035157-4.539062-8.820313-9.488281-7.890626zm0 0" fill="#ffbeaf"/><path d="m491.613281 261.9375-32.578125-6.515625c-5.023437-1.003906-9.410156-4.289063-11.410156-9.007813-26.945312-63.605468-113.269531-110.15625-215.671875-110.15625-123.964844 0-224.453125 68.191407-224.453125 152.308594 0 37.417969 19.925781 71.660156 52.921875 98.167969 5.886719 4.730469 10.226563 11.113281 12.613281 18.273437l18.988282 56.964844c2.183593 6.546875 8.308593 10.960938 15.210937 10.960938h44.554687c4.429688 0 8.019532-3.585938 8.019532-8.015625v-32.117188c22.644531 5.214844 46.898437 8.070313 72.144531 8.070313 8.125 0 16.144531-.3125 24.046875-.882813v24.929688c0 4.429687 3.589844 8.015625 8.015625 8.015625h45.542969c6.410156 0 12.207031-3.820313 14.734375-9.714844l8.730469-20.367188c4.511718-10.535156 13.355468-18.609374 24.238281-22.210937 85.722656-28.363281 147.238281-82.125 147.238281-132.074219v-10.90625c0-7.644531-5.394531-14.222656-12.886719-15.722656zm0 0" fill="#ffd2c3"/><path d="m392.273438 256.5c0 8.855469-7.175782 16.03125-16.03125 16.03125-8.855469 0-16.03125-7.175781-16.03125-16.03125s7.175781-16.03125 16.03125-16.03125c8.855468 0 16.03125 7.175781 16.03125 16.03125zm0 0" fill="#fff"/><path d="m280.050781 56.097656c0 26.5625-21.535156 48.097656-48.097656 48.097656s-48.097656-21.535156-48.097656-48.097656 21.535156-48.097656 48.097656-48.097656 48.097656 21.535156 48.097656 48.097656zm0 0" fill="#ffe09f"/><path d="m106.597656 392.003906c-1.714844-7.445312-5.992187-14.117187-12.210937-18.554687-38.75-27.652344-62.839844-66.226563-62.839844-108.933594 0-24.726563 8.117187-48.058594 22.429687-68.707031-29.121093 25.691406-46.476562 57.839844-46.476562 92.757812 0 37.417969 19.925781 71.660156 52.921875 98.167969 5.882813 4.726563 10.226563 11.113281 12.613281 18.273437l18.988282 56.964844c2.179687 6.546875 8.308593 10.964844 15.210937 10.964844h44.554687c4.429688 0 8.015626-3.589844 8.015626-8.015625v-16.03125h-20.949219c-11.199219 0-20.914063-7.730469-23.433594-18.644531zm0 0" fill="#ffbeaf"/><path d="m280.046875 440.871094v-9.015625c0-9.390625-8.039063-16.691407-17.398437-15.941407-7.449219.597657-15.015626.90625-22.679688.90625-23.722656 0-46.515625-2.90625-67.757812-8.246093-6.300782-1.582031-12.40625 3.203125-12.40625 9.703125v14.523437c22.648437 5.214844 46.902343 8.066407 72.144531 8.066407 8.128906 0 16.148437-.308594 24.050781-.878907v24.929688c0 4.425781 3.589844 8.015625 8.015625 8.015625h45.539063c6.414062 0 12.210937-3.820313 14.738281-9.714844l2.707031-6.316406h-30.921875c-8.851563 0-16.03125-7.175782-16.03125-16.03125zm0 0" fill="#ffbeaf"/><path d="m247.609375 88.535156c-26.5625 0-48.097656-21.53125-48.097656-48.09375 0-9.269531 2.664062-17.890625 7.207031-25.234375-13.703125 8.476563-22.863281 23.59375-22.863281 40.890625 0 26.5625 21.535156 48.097656 48.097656 48.097656 17.296875 0 32.414063-9.160156 40.890625-22.863281-7.34375 4.539063-15.96875 7.203125-25.234375 7.203125zm0 0" fill="#f6d190"/><path d="m376.242188 280.03125c12.976562 0 23.53125-10.554688 23.53125-23.53125s-10.554688-23.53125-23.53125-23.53125c-12.976563 0-23.53125 10.554688-23.53125 23.53125s10.554687 23.53125 23.53125 23.53125zm0-32.0625c4.703124 0 8.53125 3.828125 8.53125 8.53125s-3.828126 8.53125-8.53125 8.53125c-4.707032 0-8.53125-3.828125-8.53125-8.53125s3.824218-8.53125 8.53125-8.53125zm0 0"/><path d="m493.082031 254.585938-32.40625-6.484376c-2.824219-.5625-5.195312-2.371093-6.1875-4.714843-9.230469-21.773438-24.933593-41.613281-46.699219-59.019531v-47.09375c0-4.644532-2.042968-9.003907-5.609374-11.960938-3.558594-2.953125-8.210938-4.152344-12.765626-3.296875-12.921874 2.425781-33.304687 8.863281-57.035156 25.734375-3.375 2.402344-4.167968 7.085938-1.769531 10.460938 2.402344 3.375 7.082031 4.164062 10.460937 1.765624 22.644532-16.101562 41.746094-21.460937 51.113282-23.222656.074218-.011718.242187-.042968.417968.101563.1875.15625.1875.347656.1875.417969v50.738281c0 2.328125 1.078126 4.519531 2.921876 5.941406 21.214843 16.355469 36.34375 34.957031 44.964843 55.289063 2.945313 6.949218 9.320313 12.023437 17.054688 13.570312l32.410156 6.480469c3.972656.792969 6.859375 4.3125 6.859375 8.367187v10.902344c0 21.828125-13.835938 46.167969-38.960938 68.535156-25.707031 22.882813-62.335937 42.921875-103.136718 56.421875-12.9375 4.28125-23.425782 13.894531-28.773438 26.375l-8.730468 20.371094c-1.34375 3.140625-4.421876 5.167969-7.839844 5.167969h-45.542969c-.285156 0-.515625-.230469-.515625-.515625v-40.078125c0-4.144532-3.359375-7.5-7.5-7.5-4.144531 0-7.5 3.355468-7.5 7.5v8.144531c-5.726562.257813-11.191406.386719-16.550781.386719-21.964844 0-43.679688-2.234375-64.644531-6.625v-9.925782c0-4.140624-3.355469-7.5-7.5-7.5-4.140626 0-7.5 3.359376-7.5 7.5v48.097657c0 .285156-.230469.515625-.515626.515625h-44.558593c-3.675781 0-6.929688-2.34375-8.09375-5.832032l-18.988281-56.964843c-2.878907-8.644531-8.078126-16.164063-15.027344-21.746094-32.320313-25.964844-50.121094-58.753906-50.121094-92.324219 0-79.847656 97.324219-144.808594 216.953125-144.808594 24.175781 0 47.925781 2.65625 70.597656 7.894532 4.03125.933594 8.0625-1.582032 8.996094-5.617188.929687-4.039062-1.585937-8.0625-5.621094-8.996094-23.773437-5.496093-48.660156-8.28125-73.972656-8.28125-58.046875 0-112.890625 14.558594-155.558594 41.128907-5.859375-14.867188-20.414062-25.09375-36.828125-25.09375-21.816406-.003907-39.566406 17.746093-39.566406 39.5625 0 4.140625 3.359375 7.5 7.5 7.5s7.5-3.359375 7.5-7.5c0-13.546875 11.019531-24.566407 24.5625-24.566407 11.347656 0 21.242188 7.871094 23.867188 18.816407-40.957032 29.742187-63.429688 68.566406-63.429688 109.960937 0 38.207032 19.789062 75.148438 55.726562 104.015625 4.699219 3.777344 8.226563 8.894531 10.191407 14.796875l18.988281 56.964844c3.207031 9.625 12.179688 16.09375 22.324219 16.09375h44.558593c8.558594 0 15.515626-6.960938 15.515626-15.515625v-22.855469c21.019531 4.1875 42.71875 6.304688 64.644531 6.304688 5.375 0 10.839843-.121094 16.550781-.367188v16.917969c0 8.554687 6.960938 15.515625 15.515625 15.515625h45.542969c9.425781 0 17.914062-5.597656 21.628906-14.261719l8.726562-20.371093c3.660157-8.535157 10.839844-15.113282 19.699219-18.042969 43.320313-14.332031 80.800781-34.894531 108.398438-59.460938 28.777343-25.617187 43.988281-53.191406 43.988281-79.734375v-10.90625c0-11.179687-7.957031-20.882812-18.917969-23.074218zm0 0"/><path d="m190.890625 163.5c-4.109375.546875-6.996094 4.3125-6.453125 8.421875.5 3.769531 3.722656 6.515625 7.425781 6.515625.328125 0 .660157-.023438.996094-.066406 25.53125-3.382813 52.652344-3.382813 78.1875 0 4.105469.542968 7.875-2.34375 8.417969-6.449219.546875-4.105469-2.34375-7.875-6.449219-8.421875-26.835937-3.554688-55.292969-3.554688-82.125 0zm0 0"/><path d="m231.953125 111.695312c30.65625 0 55.597656-24.941406 55.597656-55.597656s-24.941406-55.597656-55.597656-55.597656-55.597656 24.941406-55.597656 55.597656 24.941406 55.597656 55.597656 55.597656zm0-96.195312c22.382813 0 40.597656 18.210938 40.597656 40.597656 0 22.382813-18.210937 40.597656-40.597656 40.597656s-40.597656-18.214843-40.597656-40.597656c0-22.386718 18.210937-40.597656 40.597656-40.597656zm0 0"/><path d="m237.984375 72.738281c1.464844 1.464844 3.382813 2.195313 5.304687 2.195313 1.917969 0 3.839844-.730469 5.300782-2.195313 2.929687-2.929687 2.929687-7.679687 0-10.605469l-22.671875-22.675781c-2.929688-2.929687-7.679688-2.929687-10.605469 0-2.929688 2.929688-2.929688 7.679688 0 10.605469zm0 0"/></svg>